<svg width="512" height="512" viewBox="0 0 512 512" fill="none" xmlns="http://www.w3.org/2000/svg">
  <defs>
    <linearGradient id="bgGradient" x1="96" y1="98" x2="416" y2="414" gradientUnits="userSpaceOnUse">
      <stop offset="0%" stop-color="#7C3AED"></stop>
      <stop offset="100%" stop-color="#6366F1"></stop>
    </linearGradient>

    <mask id="dMask">
      <rect width="512" height="512" fill="black"></rect>
      <!-- Outer D -->
      <path d="M152 138C152 115.909 169.909 98 192 98H258C346.366 98 416 167.634 416 256C416 344.366 346.366 414 258 414H192C169.909 414 152 396.091 152 374V138Z" fill="white"></path>
      <!-- Inner hollow -->
      <path d="M224 170H254C304.81 170 344 209.19 344 260C344 310.81 304.81 350 254 350H224V170Z" fill="black"></path>
      <!-- Split symbol -->
      <circle cx="262" cy="212" r="18" fill="black"></circle>
      <circle cx="292" cy="296" r="18" fill="black"></circle>
      <rect x="247" y="283.255" width="22" height="102" rx="11" transform="rotate(-35 247 283.255)" fill="black"></rect>
    </mask>
  </defs>

  <!-- Gradient background -->
  <rect x="0" y="0" width="512" height="512" rx="120" fill="url(#bgGradient)"></rect>

  <!-- White D -->
  <rect x="96" y="98" width="320" height="316" rx="64" fill="#F8FAFC" mask="url(#dMask)"></rect>
</svg>